<?xml version="1.0" encoding="UTF-8" standalone="no"?>
<!-- Created with Inkscape (http://www.inkscape.org/) -->

<svg
   width="356.70508mm"
   height="42.100143mm"
   viewBox="0 0 356.70508 42.100143"
   version="1.1"
   id="svg1379"
   inkscape:version="1.1.2 (0a00cf5339, 2022-02-04)"
   sodipodi:docname="everything-exhibition.svg"
   xmlns:inkscape="http://www.inkscape.org/namespaces/inkscape"
   xmlns:sodipodi="http://sodipodi.sourceforge.net/DTD/sodipodi-0.dtd"
   xmlns="http://www.w3.org/2000/svg"
   xmlns:svg="http://www.w3.org/2000/svg">
  <sodipodi:namedview
     id="namedview1381"
     pagecolor="#ffffff"
     bordercolor="#666666"
     borderopacity="1.0"
     inkscape:pageshadow="2"
     inkscape:pageopacity="0.0"
     inkscape:pagecheckerboard="0"
     inkscape:document-units="mm"
     showgrid="false"
     inkscape:zoom="1.7109633"
     inkscape:cx="733.21269"
     inkscape:cy="129.75147"
     inkscape:window-width="2079"
     inkscape:window-height="2094"
     inkscape:window-x="4321"
     inkscape:window-y="30"
     inkscape:window-maximized="1"
     inkscape:current-layer="text1307" />
  <defs
     id="defs1376">
    <inkscape:path-effect
       effect="spiro"
       id="path-effect1335"
       is_visible="true"
       lpeversion="1" />
    <inkscape:path-effect
       effect="spiro"
       id="path-effect1339"
       is_visible="true"
       lpeversion="1" />
    <inkscape:path-effect
       effect="spiro"
       id="path-effect1343"
       is_visible="true"
       lpeversion="1" />
  </defs>
  <g
     inkscape:label="Layer 1"
     inkscape:groupmode="layer"
     id="layer1"
     transform="translate(70.316326,-108.91235)">
    <rect
       style="fill:#ffffff;stroke:#000000;stroke-width:3;stroke-linecap:round"
       id="rect1299"
       width="187.52521"
       height="39.100143"
       x="-19.757107"
       y="110.41235"
       ry="7.0198441"
       rx="7.8500118" />
    <g
       aria-label="Every"
       id="text1303"
       style="font-size:24.9119px;line-height:100%;font-family:'TIC-80 wide font';-inkscape-font-specification:'TIC-80 wide font';font-variant-ligatures:discretionary-ligatures historical-ligatures;font-variant-numeric:lining-nums tabular-nums slashed-zero;stroke-width:0.957083">
      <path
         d="m -0.74547434,127.72413 q 0.47332609,0 0.47332609,1.74384 0,0.52314 -0.12455949,1.24559 -0.0996476,0.69753 -0.3985904,0.69753 H -3.9591094 v 2.49119 h 4.58378954 q 0.42350226,0 0.57297366,1.09613 0.074736,0.47332 0.074736,1.02138 0,0.52315 -0.1494714,1.37016 -0.14947137,0.847 -0.49823796,0.847 H -7.8951895 q -0.9466522,0 -0.9466522,-0.77227 v -16.01835 q 0,-0.64771 0.5729737,-0.64771 h 8.91846004 q 0.52314986,0 0.52314986,2.21716 0,2.19225 -0.52314986,2.19225 H -3.9591094 v 2.5161 z"
         style="font-family:'Lilita One';-inkscape-font-specification:'Lilita One'"
         id="path840" />
      <path
         d="m 2.3436023,125.85574 q -0.074736,-0.1993 2.3168067,-0.1993 2.4164542,0 2.4164542,0.12456 l 1.7936568,8.47005 1.345243,-8.34549 q 0.07473,-0.2242 2.466278,-0.2242 2.416454,0 2.341718,0.19929 l -3.512578,12.18192 q -0.174383,0.24912 -2.9645157,0.24912 -2.7901328,0 -2.989428,-0.37368 z"
         style="font-family:'Lilita One';-inkscape-font-specification:'Lilita One'"
         id="path842" />
      <path
         d="m 25.710963,137.56433 q -1.56945,0.92174 -4.035728,0.92174 -2.466278,0 -4.160287,-1.66909 -1.694009,-1.69401 -1.694009,-4.65853 0,-2.98943 1.619273,-4.808 1.644185,-1.81857 4.135375,-1.81857 2.49119,0 3.836433,1.27051 1.370154,1.27051 1.370154,3.08908 0,4.03573 -4.633613,4.03573 H 20.42964 q 0,0.74735 0.39859,1.04629 0.423503,0.27404 1.220683,0.27404 1.743833,0 3.313283,-0.79718 0.02491,-0.0249 0.224207,0.34876 0.597886,1.07121 0.597886,1.81857 0,0.72245 -0.473326,0.94665 z m -3.113988,-7.19954 q 0,-1.0463 -1.021388,-1.0463 -0.473326,0 -0.822092,0.29895 -0.323855,0.27403 -0.323855,0.82209 v 0.77227 h 1.345243 q 0.822092,0 0.822092,-0.84701 z"
         style="font-family:'Lilita One';-inkscape-font-specification:'Lilita One'"
         id="path844" />
      <path
         d="m 33.857156,138.21204 q 0,0.17439 -2.266983,0.17439 -2.266983,-0.0498 -2.266983,-0.1993 v -8.27075 h -0.672621 q -0.39859,0 -0.647709,-0.47333 -0.224207,-0.49823 -0.224207,-1.22068 0,-2.69049 1.594361,-2.69049 1.121036,0 1.868393,0.69754 0.747357,0.67262 0.747357,1.54454 0.523149,-1.02139 1.395066,-1.61928 0.896828,-0.6228 1.818569,-0.6228 1.44489,0 1.743833,0.74736 0.07473,0.1993 0.07473,0.59789 0,0.37368 -0.249119,1.37015 -0.224207,0.99648 -0.473326,1.44489 -0.249119,0.44842 -0.298943,0.44842 -0.04982,0 -0.473326,-0.17439 -0.39859,-0.19929 -0.722445,-0.19929 -0.946652,0 -0.946652,1.49471 z"
         style="font-family:'Lilita One';-inkscape-font-specification:'Lilita One'"
         id="path846" />
      <path
         d="m 37.394642,125.90556 q 0,-0.27403 2.266983,-0.27403 2.291895,0 2.36663,0.24912 l 1.793657,5.87921 1.718921,-5.92903 q 0.09965,-0.1993 1.544538,-0.1993 3.313283,0 3.163811,0.32386 l -5.854296,16.66606 q -0.02491,0.14947 -1.370155,0.14947 -1.32033,0 -2.466278,-0.0996 -1.145947,-0.0747 -1.096123,-0.19929 l 2.167335,-5.2315 z"
         style="font-family:'Lilita One';-inkscape-font-specification:'Lilita One'"
         id="path848" />
    </g>
    <g
       aria-label="Exhibition"
       id="text1307"
       style="font-size:24.9119px;line-height:100%;font-family:'TIC-80 wide font';-inkscape-font-specification:'TIC-80 wide font';font-variant-ligatures:discretionary-ligatures historical-ligatures;font-variant-numeric:lining-nums tabular-nums slashed-zero;stroke-width:0.957083">
      <path
         d="m 189.05792,127.71998 q 0.47333,0 0.47333,1.74383 0,0.52315 -0.12456,1.2456 -0.0996,0.69753 -0.39859,0.69753 h -3.16382 v 2.49119 h 4.58379 q 0.42351,0 0.57298,1.09613 0.0747,0.47332 0.0747,1.02138 0,0.52315 -0.14947,1.37016 -0.14947,0.847 -0.49824,0.847 h -8.51987 q -0.94665,0 -0.94665,-0.77227 v -16.01835 q 0,-0.64771 0.57298,-0.64771 h 8.91846 q 0.52315,0 0.52315,2.21716 0,2.19225 -0.52315,2.19225 h -4.60871 v 2.5161 z"
         style="font-family:'Lilita One';-inkscape-font-specification:'Lilita One'"
         id="path851" />
      <path
         d="m 200.59213,125.85159 q 0.0996,-0.1993 1.2456,-0.1993 3.73678,0 3.63713,0.27403 l -3.03925,6.30272 q 3.06416,5.72973 3.06416,5.72973 0,0.14947 -1.49471,0.24912 -1.49471,0.0996 -2.11751,0.0996 -1.56945,0 -1.6691,-0.32386 l -1.34524,-4.16028 -1.54454,4.33467 q -0.0498,0.17438 -1.41998,0.17438 -1.37015,0 -2.44136,-0.0996 -1.07121,-0.0996 -0.97157,-0.24912 l 2.81505,-5.72973 q -2.93961,-6.15324 -2.93961,-6.17815 0,-0.14948 0.74736,-0.27403 0.77227,-0.12456 1.71892,-0.12456 0.97157,0 1.84348,0.0996 0.87192,0.0747 0.97157,0.22421 l 1.32033,4.03573 z"
         style="font-family:'Lilita One';-inkscape-font-specification:'Lilita One'"
         id="path853" />
      <path
         d="m 211.15475,138.05842 q 0,0.22421 -2.09259,0.22421 -2.06769,0 -2.06769,-0.34877 v -17.06465 q 0,-0.17438 0.77227,-0.24912 0.77227,-0.0747 1.29542,-0.0747 2.09259,0 2.09259,0.44842 v 4.98238 q 1.39507,-0.4235 2.11752,-0.4235 1.8933,0 2.98942,1.02138 1.09613,0.99648 1.09613,3.73679 v 7.72269 q 0,0.22421 -1.94313,0.22421 -2.19225,-0.0747 -2.19225,-0.24912 v -7.3241 q 0,-1.22069 -0.79718,-1.22069 -0.54806,0 -1.27051,0.52315 z"
         style="font-family:'Lilita One';-inkscape-font-specification:'Lilita One'"
         id="path855" />
      <path
         d="m 224.0342,138.08333 q 0,0.1993 -2.2919,0.1993 -2.26698,0 -2.26698,-0.17439 V 125.8765 q 0,-0.17438 2.26698,-0.17438 2.2919,0 2.2919,0.14947 z m 0,-13.70154 q 0,0.17438 -2.2919,0.17438 -2.26698,0 -2.26698,-0.14947 v -3.58731 q 0,-0.24912 2.26698,-0.24912 2.2919,0 2.2919,0.14947 z"
         style="font-family:'Lilita One';-inkscape-font-specification:'Lilita One'"
         id="path857" />
      <path
         d="m 226.40084,120.86921 q 0,-0.29894 2.14243,-0.29894 2.16733,0 2.16733,0.32385 v 4.83291 q 1.07121,-0.1993 1.51963,-0.1993 5.2315,0 5.2315,6.00377 0,3.3382 -1.61928,5.15677 -1.59436,1.79365 -4.55888,1.79365 -2.9396,0 -4.88273,-1.32033 z m 5.13185,8.54478 q -0.4235,0 -0.82209,0.27403 v 4.75817 q 0.34877,0.14948 0.72245,0.14948 0.39859,0 0.79718,-0.29895 0.69753,-0.49823 0.69753,-2.3168 0,-2.56593 -1.39507,-2.56593 z"
         style="font-family:'Lilita One';-inkscape-font-specification:'Lilita One'"
         id="path859" />
      <path
         d="m 243.78936,138.08333 q 0,0.1993 -2.29189,0.1993 -2.26699,0 -2.26699,-0.17439 V 125.8765 q 0,-0.17438 2.26699,-0.17438 2.29189,0 2.29189,0.14947 z m 0,-13.70154 q 0,0.17438 -2.29189,0.17438 -2.26699,0 -2.26699,-0.14947 v -3.58731 q 0,-0.24912 2.26699,-0.24912 2.29189,0 2.29189,0.14947 z"
         style="font-family:'Lilita One';-inkscape-font-specification:'Lilita One'"
         id="path861" />
      <path
         d="m 251.76119,138.08333 q 0,0.29894 -2.0926,0.29894 -2.49119,-0.0996 -2.49119,-0.32385 v -8.81881 h -1.27051 q -0.49824,0 -0.49824,-1.71892 0,-0.44842 0.0747,-1.09613 0.0996,-0.64771 0.37368,-0.64771 h 1.32033 v -2.19224 q 0,-0.49824 2.0926,-0.49824 2.11751,0 2.11751,0.39859 v 1.59436 l 0.0249,0.69753 h 2.11751 q 0.42351,0 0.42351,1.74384 0,1.74383 -0.42351,1.74383 h -1.76874 z"
         style="font-family:'Lilita One';-inkscape-font-specification:'Lilita One'"
         id="path863" />
      <path
         d="m 259.75791,138.08333 q 0,0.1993 -2.2919,0.1993 -2.26698,0 -2.26698,-0.17439 V 125.8765 q 0,-0.17438 2.26698,-0.17438 2.2919,0 2.2919,0.14947 z m 0,-13.70154 q 0,0.17438 -2.2919,0.17438 -2.26698,0 -2.26698,-0.14947 v -3.58731 q 0,-0.24912 2.26698,-0.24912 2.2919,0 2.2919,0.14947 z"
         style="font-family:'Lilita One';-inkscape-font-specification:'Lilita One'"
         id="path865" />
      <path
         d="m 263.07121,136.763 q -1.54454,-1.71892 -1.54454,-4.75817 0,-3.03925 1.54454,-4.75817 1.56945,-1.71893 4.21011,-1.71893 2.64066,0 4.1852,1.71893 1.54453,1.71892 1.54453,4.75817 0,3.03925 -1.54453,4.75817 -1.54454,1.71892 -4.1852,1.71892 -2.64066,0 -4.21011,-1.71892 z m 4.21011,-7.07498 q -1.39507,0 -1.39507,2.2919 0,2.29189 1.39507,2.29189 1.41998,0 1.41998,-2.29189 0,-2.2919 -1.41998,-2.2919 z"
         style="font-family:'Lilita One';-inkscape-font-specification:'Lilita One'"
         id="path867" />
      <path
         d="m 279.9864,138.08333 q 0,0.17439 -1.79366,0.17439 -2.49119,-0.0747 -2.49119,-0.27404 v -8.07145 h -0.64771 q -0.64771,0 -0.847,-1.09612 -0.0498,-0.32386 -0.0498,-0.64771 0,-0.77227 0.29895,-1.54454 0.44841,-1.09613 1.39506,-1.09613 0.94665,0 1.69401,0.44842 0.74736,0.44841 0.99648,0.89683 1.56945,-1.34525 3.73678,-1.34525 2.16734,0 3.1389,1.17086 0.97157,1.17086 0.97157,3.83644 v 7.47357 q 0,0.29894 -2.14243,0.29894 -2.11751,0 -2.11751,-0.29894 v -7.19954 q 0,-1.2456 -0.87192,-1.2456 -0.24911,0 -0.69753,0.22421 -0.44841,0.19929 -0.57297,0.29894 z"
         style="font-family:'Lilita One';-inkscape-font-specification:'Lilita One'"
         id="path869" />
    </g>
    <g
       aria-label="The"
       id="text1311"
       style="font-size:24.9119px;line-height:100%;font-family:'TIC-80 wide font';-inkscape-font-specification:'TIC-80 wide font';font-variant-ligatures:discretionary-ligatures historical-ligatures;font-variant-numeric:lining-nums tabular-nums slashed-zero;stroke-width:0.957083">
      <path
         d="m -61.721721,137.88907 q 0,0.49824 -2.466278,0.49824 -2.466278,0 -2.466278,-0.49824 v -12.50578 h -2.989428 q -0.423502,0 -0.597885,-1.14594 -0.07474,-0.54806 -0.07474,-1.12104 0,-0.57297 0.07474,-1.12103 0.174383,-1.14595 0.597885,-1.14595 h 10.836677 q 0.423502,0 0.597885,1.14595 0.07474,0.54806 0.07474,1.12103 0,0.57298 -0.07474,1.12104 -0.174383,1.14594 -0.597885,1.14594 h -2.914693 z"
         style="font-family:'Lilita One';-inkscape-font-specification:'Lilita One'"
         id="path872" />
      <path
         d="m -52.678681,138.11328 q 0,0.2242 -2.0926,0.2242 -2.067687,0 -2.067687,-0.34876 v -17.06466 q 0,-0.17438 0.772269,-0.24911 0.772268,-0.0747 1.295418,-0.0747 2.0926,0 2.0926,0.44841 v 4.98238 q 1.395066,-0.4235 2.117511,-0.4235 1.893305,0 2.989428,1.02139 1.096124,0.99648 1.096124,3.73678 v 7.72269 q 0,0.22421 -1.943128,0.22421 -2.192247,-0.0747 -2.192247,-0.24912 v -7.3241 q 0,-1.22068 -0.797181,-1.22068 -0.548062,0 -1.270507,0.52315 z"
         style="font-family:'Lilita One';-inkscape-font-specification:'Lilita One'"
         id="path874" />
      <path
         d="m -34.941423,137.61504 q -1.56945,0.92174 -4.035728,0.92174 -2.466278,0 -4.160287,-1.6691 -1.694009,-1.69401 -1.694009,-4.65852 0,-2.98943 1.619273,-4.808 1.644186,-1.81857 4.135376,-1.81857 2.49119,0 3.836432,1.27051 1.370155,1.2705 1.370155,3.08907 0,4.03573 -4.633614,4.03573 h -1.718921 q 0,0.74736 0.398591,1.0463 0.423502,0.27403 1.220683,0.27403 1.743833,0 3.313282,-0.79718 0.02491,-0.0249 0.224208,0.34877 0.597885,1.07121 0.597885,1.81857 0,0.72244 -0.473326,0.94665 z m -3.113987,-7.19954 q 0,-1.0463 -1.021388,-1.0463 -0.473326,0 -0.822093,0.29894 -0.323855,0.27403 -0.323855,0.82209 v 0.77227 h 1.345243 q 0.822093,0 0.822093,-0.847 z"
         style="font-family:'Lilita One';-inkscape-font-specification:'Lilita One'"
         id="path876" />
    </g>
    <path
       style="fill:#000000;stroke:#000000;stroke-width:1.91417;stroke-linecap:round"
       d="m 51.904586,117.40849 v 25.59435"
       id="path1313"
       inkscape:path-effect="#path-effect1335"
       inkscape:original-d="m 51.904586,117.40849 c 0,8.53163 0,25.59435 0,25.59435" />
    <g
       aria-label="thing"
       id="g1325"
       style="font-size:26.029px;line-height:100%;font-family:'TIC-80 wide font';-inkscape-font-specification:'TIC-80 wide font';font-variant-ligatures:discretionary-ligatures historical-ligatures;font-variant-numeric:lining-nums tabular-nums slashed-zero;fill:#b3b3b3"
       transform="matrix(0.95708301,0,0,0.95708301,-1086.9632,406.57443)">
      <path
         d="m 1198.5714,-280.23525 q 0,0.31235 -2.1864,0.31235 -2.6029,-0.10411 -2.6029,-0.33837 v -9.21427 h -1.3275 q -0.5206,0 -0.5206,-1.796 0,-0.46852 0.078,-1.14528 0.1041,-0.67675 0.3905,-0.67675 h 1.3795 v -2.29055 q 0,-0.52058 2.1864,-0.52058 2.2125,0 2.2125,0.41646 v 1.66586 l 0.026,0.72881 h 2.2125 q 0.4425,0 0.4425,1.82203 0,1.82203 -0.4425,1.82203 h -1.8481 z"
         style="font-family:'Lilita One';-inkscape-font-specification:'Lilita One';fill:#b3b3b3"
         id="path1315" />
      <path
         d="m 1206.5103,-280.26127 q 0,0.23426 -2.1865,0.23426 -2.1604,0 -2.1604,-0.36441 v -17.82986 q 0,-0.18221 0.8069,-0.26029 0.8069,-0.0781 1.3535,-0.0781 2.1865,0 2.1865,0.46852 v 5.2058 q 1.4576,-0.44249 2.2124,-0.44249 1.9782,0 3.1235,1.06719 1.1453,1.04116 1.1453,3.90435 v 8.06899 q 0,0.23426 -2.0303,0.23426 -2.2905,-0.0781 -2.2905,-0.26029 v -7.65253 q 0,-1.27542 -0.8329,-1.27542 -0.5727,0 -1.3275,0.54661 z"
         style="font-family:'Lilita One';-inkscape-font-specification:'Lilita One';fill:#b3b3b3"
         id="path1317" />
      <path
         d="m 1219.9673,-280.23525 q 0,0.20824 -2.3947,0.20824 -2.3687,0 -2.3687,-0.18221 v -12.78023 q 0,-0.18221 2.3687,-0.18221 2.3947,0 2.3947,0.15618 z m 0,-14.31594 q 0,0.1822 -2.3947,0.1822 -2.3687,0 -2.3687,-0.15618 v -3.74817 q 0,-0.26029 2.3687,-0.26029 2.3947,0 2.3947,0.15617 z"
         style="font-family:'Lilita One';-inkscape-font-specification:'Lilita One';fill:#b3b3b3"
         id="path1319" />
      <path
         d="m 1227.7499,-280.23525 q 0,0.18221 -1.874,0.18221 -2.6029,-0.0781 -2.6029,-0.28632 v -8.4334 h -0.6768 q -0.6768,0 -0.885,-1.14527 -0.052,-0.33838 -0.052,-0.67676 0,-0.8069 0.3123,-1.61379 0.4685,-1.14528 1.4576,-1.14528 0.9891,0 1.77,0.46852 0.7809,0.46852 1.0412,0.93705 1.6398,-1.40557 3.9043,-1.40557 2.2645,0 3.2797,1.22336 1.0151,1.22337 1.0151,4.00847 v 7.8087 q 0,0.31235 -2.2385,0.31235 -2.2125,0 -2.2125,-0.31235 v -7.52238 q 0,-1.30145 -0.911,-1.30145 -0.2603,0 -0.7288,0.23426 -0.4685,0.20823 -0.5987,0.31235 z"
         style="font-family:'Lilita One';-inkscape-font-specification:'Lilita One';fill:#b3b3b3"
         id="path1321" />
      <path
         d="m 1241.4412,-280.07907 q -2.5248,0 -3.9043,-1.6138 -1.3796,-1.63983 -1.3796,-4.81536 0,-3.20157 1.796,-4.99757 1.8221,-1.82203 4.8154,-1.82203 3.0194,0 4.9715,1.32748 v 12.96244 q 0,1.92614 -1.5617,2.94128 -1.5618,1.04116 -4.0085,1.04116 -2.4467,0 -4.3729,-0.6247 -0.2602,-0.6247 -0.2602,-1.11925 0,-1.66585 0.5466,-2.44672 1.7439,0.75484 3.7221,0.75484 1.4316,0 1.4316,-1.01513 v -0.78087 q -1.1192,0.20823 -1.796,0.20823 z m 1.1973,-9.00603 q -1.7439,0 -1.7439,2.62892 0,1.63983 0.6768,2.13438 0.4424,0.33838 0.8849,0.33838 0.4425,0 0.7809,-0.0781 v -4.94551 q -0.3123,-0.0781 -0.5987,-0.0781 z"
         style="font-family:'Lilita One';-inkscape-font-specification:'Lilita One';fill:#b3b3b3"
         id="path1323" />
    </g>
    <path
       style="fill:#000000;stroke:#000000;stroke-width:3.06352;stroke-linecap:round"
       d="m 131.89471,111.86192 v 36.43649"
       id="path1327"
       inkscape:path-effect="#path-effect1339"
       inkscape:original-d="m 131.89471,111.86192 c 0,12.14577 0,36.43649 0,36.43649" />
    <path
       style="fill:#000000;stroke:none;stroke-width:0.814003;stroke-linecap:round"
       d="m 140.60551,125.99952 8.38271,10.46937 8.35179,-10.49838 -16.7345,0.029 z"
       id="path1329"
       inkscape:path-effect="#path-effect1343"
       inkscape:original-d="m 140.60551,125.99952 8.38271,10.46937 8.35179,-10.49838 -16.7345,0.029 z"
       sodipodi:nodetypes="ccccc" />
  </g>
</svg>
