<svg width="1348.177" height="159.119" viewBox="0 0 356.705 42.1" version="1.1" id="svg1379" xmlns="http://www.w3.org/2000/svg"><g id="layer1" transform="translate(70.316 -108.912)"><rect style="fill:#fff;stroke:#000;stroke-width:3;stroke-linecap:round" id="rect1299" width="187.525" height="39.1" x="-19.757" y="110.412" ry="7.02" rx="7.85"/><g aria-label="Every" id="text1303" style="font-size:24.9119px;line-height:100%;font-family:TIC-80 wide font;-inkscape-font-specification:&quot;TIC-80 wide font&quot;;font-variant-ligatures:discretionary-ligatures historical-ligatures;font-variant-numeric:lining-nums tabular-nums slashed-zero;stroke-width:.957083"><path d="M-.745 127.724q.473 0 .473 1.744 0 .523-.125 1.246-.1.697-.398.697H-3.96v2.491H.625q.423 0 .573 1.096.074.474.074 1.022 0 .523-.15 1.37-.149.847-.497.847h-8.52q-.947 0-.947-.772v-16.019q0-.647.573-.647H.65q.523 0 .523 2.217 0 2.192-.523 2.192h-4.61v2.516z" style="font-family:Lilita One;-inkscape-font-specification:&quot;Lilita One&quot;" id="path840"/><path d="M2.344 125.856q-.075-.2 2.316-.2 2.417 0 2.417.125l1.794 8.47 1.345-8.345q.074-.225 2.466-.225 2.416 0 2.342.2l-3.513 12.182q-.174.249-2.964.249t-2.99-.374z" style="font-family:Lilita One;-inkscape-font-specification:&quot;Lilita One&quot;" id="path842"/><path d="M25.711 137.564q-1.57.922-4.036.922-2.466 0-4.16-1.669-1.694-1.694-1.694-4.659 0-2.989 1.62-4.808 1.643-1.818 4.135-1.818 2.49 0 3.836 1.27 1.37 1.27 1.37 3.09 0 4.035-4.633 4.035h-1.72q0 .748.4 1.046.423.275 1.22.275 1.744 0 3.313-.798.025-.025.224.35.598 1.07.598 1.818 0 .722-.473.946zm-3.114-7.2q0-1.046-1.021-1.046-.474 0-.823.3-.323.273-.323.822v.772h1.345q.822 0 .822-.847z" style="font-family:Lilita One;-inkscape-font-specification:&quot;Lilita One&quot;" id="path844"/><path d="M33.857 138.212q0 .174-2.267.174-2.267-.05-2.267-.199v-8.27h-.672q-.399 0-.648-.474-.224-.498-.224-1.22 0-2.691 1.594-2.691 1.121 0 1.868.697.748.673.748 1.545.523-1.021 1.395-1.62.897-.622 1.818-.622 1.445 0 1.744.747.075.2.075.598 0 .374-.25 1.37-.223.997-.472 1.445-.25.449-.3.449-.05 0-.473-.175-.398-.2-.722-.2-.947 0-.947 1.496z" style="font-family:Lilita One;-inkscape-font-specification:&quot;Lilita One&quot;" id="path846"/><path d="M37.395 125.906q0-.274 2.267-.274 2.292 0 2.366.249l1.794 5.879 1.719-5.93q.1-.198 1.544-.198 3.314 0 3.164.323l-5.854 16.666q-.025.15-1.37.15-1.32 0-2.467-.1-1.145-.074-1.096-.199l2.168-5.231z" style="font-family:Lilita One;-inkscape-font-specification:&quot;Lilita One&quot;" id="path848"/></g><g aria-label="Exhibition" id="text1307" style="font-size:24.9119px;line-height:100%;font-family:TIC-80 wide font;-inkscape-font-specification:&quot;TIC-80 wide font&quot;;font-variant-ligatures:discretionary-ligatures historical-ligatures;font-variant-numeric:lining-nums tabular-nums slashed-zero;stroke-width:.957083"><path d="M189.058 127.72q.473 0 .473 1.744 0 .523-.124 1.245-.1.698-.399.698h-3.164v2.491h4.584q.424 0 .573 1.096.075.474.075 1.022 0 .523-.15 1.37-.15.847-.498.847h-8.52q-.946 0-.946-.772v-16.019q0-.648.572-.648h8.919q.523 0 .523 2.218 0 2.192-.523 2.192h-4.609v2.516z" style="font-family:Lilita One;-inkscape-font-specification:&quot;Lilita One&quot;" id="path851"/><path d="M200.592 125.852q.1-.2 1.246-.2 3.737 0 3.637.274l-3.04 6.303 3.065 5.73q0 .15-1.495.249-1.495.1-2.117.1-1.57 0-1.67-.324l-1.345-4.16-1.544 4.334q-.05.174-1.42.174-1.37 0-2.442-.1-1.07-.099-.971-.248l2.815-5.73q-2.94-6.153-2.94-6.178 0-.15.748-.274.772-.125 1.718-.125.972 0 1.844.1.872.075.972.224l1.32 4.036z" style="font-family:Lilita One;-inkscape-font-specification:&quot;Lilita One&quot;" id="path853"/><path d="M211.155 138.058q0 .225-2.093.225-2.068 0-2.068-.35V120.87q0-.174.773-.249.772-.075 1.295-.075 2.093 0 2.093.449v4.982q1.395-.423 2.117-.423 1.894 0 2.99 1.021 1.096.997 1.096 3.737v7.723q0 .224-1.943.224-2.193-.075-2.193-.25v-7.323q0-1.221-.797-1.221-.548 0-1.27.523z" style="font-family:Lilita One;-inkscape-font-specification:&quot;Lilita One&quot;" id="path855"/><path d="M224.034 138.083q0 .2-2.292.2-2.267 0-2.267-.175v-12.232q0-.174 2.267-.174 2.292 0 2.292.15zm0-13.701q0 .174-2.292.174-2.267 0-2.267-.15v-3.587q0-.249 2.267-.249 2.292 0 2.292.15z" style="font-family:Lilita One;-inkscape-font-specification:&quot;Lilita One&quot;" id="path857"/><path d="M226.4 120.87q0-.3 2.143-.3 2.168 0 2.168.324v4.833q1.07-.2 1.52-.2 5.23 0 5.23 6.004 0 3.339-1.619 5.157-1.594 1.794-4.558 1.794-2.94 0-4.883-1.32zm5.133 8.544q-.424 0-.822.274v4.758q.348.15.722.15.399 0 .797-.3.698-.498.698-2.316 0-2.566-1.395-2.566z" style="font-family:Lilita One;-inkscape-font-specification:&quot;Lilita One&quot;" id="path859"/><path d="M243.79 138.083q0 .2-2.293.2-2.267 0-2.267-.175v-12.232q0-.174 2.267-.174 2.292 0 2.292.15zm0-13.701q0 .174-2.293.174-2.267 0-2.267-.15v-3.587q0-.249 2.267-.249 2.292 0 2.292.15z" style="font-family:Lilita One;-inkscape-font-specification:&quot;Lilita One&quot;" id="path861"/><path d="M251.761 138.083q0 .3-2.092.3-2.492-.1-2.492-.325v-8.818h-1.27q-.498 0-.498-1.72 0-.448.074-1.095.1-.648.374-.648h1.32v-2.192q0-.499 2.093-.499 2.117 0 2.117.399v1.594l.025.698h2.118q.423 0 .423 1.744t-.423 1.744h-1.769z" style="font-family:Lilita One;-inkscape-font-specification:&quot;Lilita One&quot;" id="path863"/><path d="M259.758 138.083q0 .2-2.292.2-2.267 0-2.267-.175v-12.232q0-.174 2.267-.174 2.292 0 2.292.15zm0-13.701q0 .174-2.292.174-2.267 0-2.267-.15v-3.587q0-.249 2.267-.249 2.292 0 2.292.15z" style="font-family:Lilita One;-inkscape-font-specification:&quot;Lilita One&quot;" id="path865"/><path d="M263.071 136.763q-1.544-1.719-1.544-4.758 0-3.04 1.544-4.758 1.57-1.72 4.21-1.72 2.641 0 4.186 1.72 1.544 1.719 1.544 4.758 0 3.04-1.544 4.758-1.545 1.719-4.186 1.719-2.64 0-4.21-1.719zm4.21-7.075q-1.395 0-1.395 2.292t1.395 2.292q1.42 0 1.42-2.292t-1.42-2.292z" style="font-family:Lilita One;-inkscape-font-specification:&quot;Lilita One&quot;" id="path867"/><path d="M279.986 138.083q0 .175-1.793.175-2.491-.075-2.491-.274v-8.072h-.648q-.648 0-.847-1.096-.05-.324-.05-.648 0-.772.299-1.544.448-1.096 1.395-1.096.947 0 1.694.448.747.449.997.897 1.569-1.345 3.736-1.345 2.168 0 3.14 1.17.97 1.171.97 3.837v7.474q0 .299-2.142.299-2.117 0-2.117-.3v-7.199q0-1.246-.872-1.246-.25 0-.698.225-.448.199-.573.299z" style="font-family:Lilita One;-inkscape-font-specification:&quot;Lilita One&quot;" id="path869"/></g><g aria-label="The" id="text1311" style="font-size:24.9119px;line-height:100%;font-family:TIC-80 wide font;-inkscape-font-specification:&quot;TIC-80 wide font&quot;;font-variant-ligatures:discretionary-ligatures historical-ligatures;font-variant-numeric:lining-nums tabular-nums slashed-zero;stroke-width:.957083"><path d="M-61.722 137.89q0 .497-2.466.497t-2.466-.498v-12.506h-2.99q-.423 0-.598-1.146-.074-.548-.074-1.12 0-.574.074-1.122.175-1.146.598-1.146h10.837q.423 0 .598 1.146.075.548.075 1.121t-.075 1.121q-.175 1.146-.598 1.146h-2.915z" style="font-family:Lilita One;-inkscape-font-specification:&quot;Lilita One&quot;" id="path872"/><path d="M-52.679 138.113q0 .224-2.092.224-2.068 0-2.068-.348v-17.065q0-.174.772-.25.773-.074 1.296-.074 2.092 0 2.092.449v4.982q1.395-.423 2.118-.423 1.893 0 2.99 1.02 1.095.997 1.095 3.738v7.722q0 .225-1.943.225-2.192-.075-2.192-.25v-7.324q0-1.22-.797-1.22-.548 0-1.27.523z" style="font-family:Lilita One;-inkscape-font-specification:&quot;Lilita One&quot;" id="path874"/><path d="M-34.941 137.615q-1.57.922-4.036.922-2.466 0-4.16-1.67-1.694-1.693-1.694-4.658 0-2.99 1.619-4.808 1.644-1.818 4.135-1.818 2.491 0 3.837 1.27 1.37 1.27 1.37 3.09 0 4.035-4.634 4.035h-1.719q0 .747.399 1.046.423.274 1.22.274 1.744 0 3.314-.797.025-.025.224.349.598 1.071.598 1.818 0 .723-.473.947zm-3.114-7.2q0-1.046-1.022-1.046-.473 0-.822.3-.324.273-.324.821v.772h1.345q.823 0 .823-.847z" style="font-family:Lilita One;-inkscape-font-specification:&quot;Lilita One&quot;" id="path876"/></g><path style="fill:#000;stroke:#000;stroke-width:1.91417;stroke-linecap:round" d="M51.905 117.408v25.595" id="path1313"/><g aria-label="thing" id="g1325" style="font-size:26.029px;line-height:100%;font-family:TIC-80 wide font;-inkscape-font-specification:&quot;TIC-80 wide font&quot;;font-variant-ligatures:discretionary-ligatures historical-ligatures;font-variant-numeric:lining-nums tabular-nums slashed-zero;fill:#b3b3b3" transform="matrix(.95708 0 0 .95708 -1086.963 406.574)"><path d="M1198.571-280.235q0 .312-2.186.312-2.603-.104-2.603-.338v-9.215h-1.327q-.521 0-.521-1.796 0-.468.078-1.145.104-.677.39-.677h1.38v-2.29q0-.52 2.186-.52 2.213 0 2.213.416v1.666l.026.728h2.212q.443 0 .443 1.822t-.443 1.822h-1.848z" style="font-family:Lilita One;-inkscape-font-specification:&quot;Lilita One&quot;;fill:#b3b3b3" id="path1315"/><path d="M1206.51-280.261q0 .234-2.186.234-2.16 0-2.16-.364v-17.83q0-.182.806-.26.807-.079 1.354-.079 2.186 0 2.186.469v5.206q1.458-.443 2.213-.443 1.978 0 3.123 1.067 1.145 1.042 1.145 3.905v8.069q0 .234-2.03.234-2.29-.078-2.29-.26v-7.653q0-1.275-.833-1.275-.573 0-1.328.546z" style="font-family:Lilita One;-inkscape-font-specification:&quot;Lilita One&quot;;fill:#b3b3b3" id="path1317"/><path d="M1219.967-280.235q0 .208-2.394.208-2.37 0-2.37-.182v-12.78q0-.183 2.37-.183 2.394 0 2.394.157zm0-14.316q0 .182-2.394.182-2.37 0-2.37-.156v-3.748q0-.26 2.37-.26 2.394 0 2.394.156z" style="font-family:Lilita One;-inkscape-font-specification:&quot;Lilita One&quot;;fill:#b3b3b3" id="path1319"/><path d="M1227.75-280.235q0 .182-1.874.182-2.603-.078-2.603-.286v-8.434h-.677q-.677 0-.885-1.145-.052-.338-.052-.677 0-.807.312-1.614.469-1.145 1.458-1.145.99 0 1.77.469.781.468 1.041.937 1.64-1.406 3.905-1.406 2.264 0 3.28 1.223 1.014 1.224 1.014 4.009v7.809q0 .312-2.238.312-2.213 0-2.213-.312v-7.523q0-1.301-.91-1.301-.26 0-.73.234-.468.208-.598.312z" style="font-family:Lilita One;-inkscape-font-specification:&quot;Lilita One&quot;;fill:#b3b3b3" id="path1321"/><path d="M1241.441-280.08q-2.525 0-3.904-1.613-1.38-1.64-1.38-4.815 0-3.202 1.796-4.998 1.822-1.822 4.816-1.822 3.02 0 4.971 1.328v12.962q0 1.926-1.561 2.941-1.562 1.042-4.009 1.042t-4.373-.625q-.26-.625-.26-1.12 0-1.665.547-2.446 1.743.755 3.722.755 1.431 0 1.431-1.015v-.781q-1.119.208-1.796.208zm1.197-9.005q-1.743 0-1.743 2.629 0 1.64.676 2.134.443.339.885.339.443 0 .781-.079v-4.945q-.312-.078-.599-.078z" style="font-family:Lilita One;-inkscape-font-specification:&quot;Lilita One&quot;;fill:#b3b3b3" id="path1323"/></g><path style="fill:#000;stroke:#000;stroke-width:3.06352;stroke-linecap:round" d="M131.895 111.862v36.436" id="path1327"/><path style="fill:#000;stroke:none;stroke-width:.814003;stroke-linecap:round" d="m140.606 126 8.382 10.469 8.352-10.498-16.734.029z" id="path1329"/></g></svg>